<svg xmlns="http://www.w3.org/2000/svg" width="512" height="512" viewBox="0 0 512 512">
  <path fill="#d4d4ff" d="M256 383.43a121 121 0 0 0-40.7 7.04 121.7 121.7 0 0 0-70.34 65.81 120 120 0 0 0-10.03 48.22H256z"/>
  <path fill="#efedff" d="M367.04 456.28a121.7 121.7 0 0 0-70.35-65.8 121 121 0 0 0-40.69-7.05V504.5h121.07c0-17.13-3.59-33.44-10.03-48.22"/>
  <path fill="#8288cb" d="m327.35 409.56-.65-3.28a120.7 120.7 0 0 0-70.7-22.85 120.5 120.5 0 0 0-70.71 22.86c-6.35 31.92-10 62.78-10 98.2h161.4c0-31.88-3.12-63.67-9.34-94.93"/>
  <path fill="#676fb2" d="M256 383.43a120.5 120.5 0 0 0-70.7 22.85l-.01.01c-6.35 31.92-10 62.78-10 98.2h30.64c.06-52.6 31.45-97.87 76.52-118.14a121 121 0 0 0-26.45-2.92"/>
  <path fill="#efedff" d="M288.8 434.36h-65.6c-16.08 0-25.6-18.01-16.51-31.29l8.6-12.6 40.71-21.9 40.69 21.9 8.62 12.6c9.07 13.28-.43 31.3-16.51 31.3"/>
  <path fill="#ffcbbe" d="m256 368.58-40.7 21.9c7.14 18.74 21.44 33.58 40.7 43.88 19.26-10.3 33.54-25.15 40.69-43.89z"/>
  <g fill="#ffcbbe">
    <circle cx="110.86" cy="251.13" r="36.08"/>
    <circle cx="401.12" cy="251.13" r="36.08"/>
  </g>
  <path fill="#ffddcf" d="M322.53 122.12A144 144 0 0 0 256 106a144.5 144.5 0 0 0-66.52 16.12c-46.69 24.12-78.6 72.83-78.6 129 0 26.05 6.86 50.49 18.87 71.62a145.5 145.5 0 0 0 85.55 67.73 146 146 0 0 0 81.4 0 145.5 145.5 0 0 0 85.55-67.74 144.4 144.4 0 0 0 18.88-71.6c0-56.17-31.91-104.88-78.59-129"/>
  <path fill="#ffcbbe" d="M158.97 251.13c0-71.96 52.37-131.68 121.07-143.15A146 146 0 0 0 256 106c-80.15 0-145.13 64.98-145.13 145.13S175.84 396.26 256 396.26q12.31-.02 24.05-2c-68.7-11.46-121.07-71.18-121.07-143.13"/>
  <path fill="#d6948c" d="M322.53 122.12c3.37 14.42 4.6 32.52-1.81 53.9a15.53 15.53 0 0 0 8.67 18.7l29.83 12.97a22.6 22.6 0 0 1 13.48 19.08 189 189 0 0 1-6.84 66.5 23.8 23.8 0 0 0 8.46 25.56 23 23 0 0 0 7.92 3.9 144.4 144.4 0 0 0 18.88-71.6c0-56.17-31.91-104.88-78.59-129"/>
  <path fill="#ce857a" d="M146.14 293.27a189 189 0 0 1-6.84-66.5 22.6 22.6 0 0 1 13.48-19.08l29.83-12.96a15.53 15.53 0 0 0 8.68-18.7c-6.41-21.4-5.18-39.5-1.82-53.92-46.69 24.13-78.6 72.84-78.6 129.02a144.4 144.4 0 0 0 18.87 71.6 23 23 0 0 0 7.94-3.9 23.8 23.8 0 0 0 8.46-25.56"/>
  <g fill="#ffcbbe">
    <ellipse cx="176.87" cy="300.5" rx="28.88" ry="23"/>
    <ellipse cx="334.99" cy="300.5" rx="29" ry="23"/>
  </g>
  <path fill="#ce857a" d="M303.87 294.7c-6.89 0-13.34-2.96-18.2-7.84a19.93 19.93 0 0 0-29.67 1.56 19.93 19.93 0 0 0-29.67-1.56c-4.86 4.88-11.32 7.83-18.2 7.83a4.9 4.9 0 0 0-4.8 5.88A29.96 29.96 0 0 0 256 313.51a29.96 29.96 0 0 0 52.67-12.94 4.9 4.9 0 0 0-4.8-5.88"/>
  <path fill="#676fb2" d="m392.58 373.65-30 111.96a15 15 0 1 0 28.97 7.77l30-111.96-12-11.75z"/>
  <path fill="#efedff" d="M431.55 344.1a15 15 0 1 0-28.97-7.77l-10 37.32 28.97 7.77z"/>
  <circle cx="367.34" cy="450.64" r="20" fill="#ffbf9d"/>
  <circle cx="398.22" cy="447.93" r="30" fill="#ffd4bd"/>
  <path fill="#8288cb" d="M390.45 28.13A446 446 0 0 0 245.12 7.65a450 450 0 0 0-123.55 20.52 30 30 0 0 0-20.45 34.12 832 832 0 0 1 13.9 131.48 377 377 0 0 0 140.75 27.53 375 375 0 0 0 141.18-27.57 833 833 0 0 1 13.92-131.49 30 30 0 0 0-20.42-34.1"/>
  <path fill="#676fb2" d="M221.45 59.16a49.05 49.05 0 0 1 23.67-51.5 450 450 0 0 0-123.55 20.5 30 30 0 0 0-20.45 34.13 832 832 0 0 1 13.9 131.48 377 377 0 0 0 126.74 27.27 1362 1362 0 0 0-20.31-161.88"/>
  <path fill="#ff8e9e" d="M396.95 193.73q.9-34.22 4.59-68.22a313.4 313.4 0 0 1-145.77 35.78 313.4 313.4 0 0 1-145.3-35.53 834 834 0 0 1 4.56 68.01 376 376 0 0 0 140.74 27.53c48.7 0 96.43-9.42 141.18-27.57"/>
  <path fill="#ea5b70" d="M241.76 221.04q-1.9-29.1-5.03-58.07l-.25-2.27a313 313 0 0 1-126.01-34.95 834 834 0 0 1 4.56 68.02 377 377 0 0 0 126.73 27.27"/>
  <path fill="#676fb2" d="M438.28 163.72a22.4 22.4 0 0 0-25.84-4.23c-48.04 24.06-101.37 36.8-156.67 36.8-55.19 0-108.42-12.7-156.4-36.67a22.35 22.35 0 0 0-25.78 4.23c-10.88 10.89-7.78 29.2 6.03 36a416 416 0 0 0 35.7 15.47 394 394 0 0 0 140.45 25.98 394 394 0 0 0 140.9-25.98 403 403 0 0 0 35.65-15.6 22.46 22.46 0 0 0 5.95-36"/>
  <path fill="#ffce71" d="M500.68 294.02a50 50 0 0 0-13.64-5.77 50 50 0 0 0-5.78-13.64 7.9 7.9 0 0 0-13.52 0 50 50 0 0 0-5.78 13.64 50 50 0 0 0-13.64 5.77 7.88 7.88 0 0 0 0 13.53 50 50 0 0 0 13.64 5.79 50 50 0 0 0 5.78 13.63 7.9 7.9 0 0 0 13.53 0 50 50 0 0 0 5.77-13.63 50 50 0 0 0 13.64-5.79 7.9 7.9 0 0 0 0-13.53M126.54 398.1a58 58 0 0 0-15.9-6.73 58 58 0 0 0-6.75-15.91 9.22 9.22 0 0 0-15.78 0 58 58 0 0 0-6.75 15.9 58 58 0 0 0-15.9 6.75C62.47 399.93 61 402.96 61 406s1.48 6.07 4.46 7.9a58 58 0 0 0 15.91 6.74 58 58 0 0 0 6.74 15.9 9.22 9.22 0 0 0 15.78 0 58 58 0 0 0 6.74-15.9 58 58 0 0 0 15.91-6.75 9.22 9.22 0 0 0 0-15.78"/>
  <path d="M248.5 434.36h15v70.14h-15z"/>
  <circle cx="286" cy="457.09" r="7.5"/>
  <circle cx="286" cy="482.5" r="7.5"/>
  <path d="M422.89 318.48a22.5 22.5 0 0 0-27.56 15.91l-23.22 86.66a38 38 0 0 0-2.1 2.22c-4.43-.44-8.86.2-12.96 1.88a129 129 0 0 0-40.35-33.95 152 152 0 0 0 15.42-7.73 7.5 7.5 0 0 0-7.48-13A137.4 137.4 0 0 1 256 388.76c-47.15 0-90.02-23.8-115.39-62.83a31.3 31.3 0 0 0 12.75-34.73 191 191 0 0 1-7.04-57.78 400.5 400.5 0 0 0 219.38.15c.5 11.63-.1 33.53-7.04 57.63a31.25 31.25 0 0 0 12.82 34.78 139 139 0 0 1-23.83 27.85 7.5 7.5 0 1 0 10 11.17 153.4 153.4 0 0 0 44.67-70.33A43.56 43.56 0 0 0 422 212.9q6.87-3.1 13.65-6.47c18.38-9.13 22.43-33.5 7.92-48.02a29.8 29.8 0 0 0-34.5-5.62l-2.61 1.28a828 828 0 0 1 11.77-90.45 37.36 37.36 0 0 0-25.54-42.64A453 453 0 0 0 256.22 0h-.24c-46.36.02-92.34 7.1-136.66 21.01a37.36 37.36 0 0 0-25.58 42.65c.92 4.88 1.8 9.83 2.62 14.71a7.5 7.5 0 1 0 14.79-2.48 827 827 0 0 0-2.66-14.99 22.4 22.4 0 0 1 15.33-25.58A442 442 0 0 1 255.99 15h.23c44.9 0 89.3 6.82 131.97 20.29a22.4 22.4 0 0 1 15.3 25.57 838 838 0 0 0-8.93 59.8 308 308 0 0 1-138.79 33.13 308 308 0 0 1-138.3-32.87 839 839 0 0 0-1.84-15.1 7.5 7.5 0 1 0-14.87 1.95 832 832 0 0 1 4.76 46.52l-2.79-1.37a29.8 29.8 0 0 0-34.44 5.63 29.9 29.9 0 0 0 8.02 48.02q6.74 3.31 13.58 6.37a43.55 43.55 0 0 0 19.85 81.73c12.9 43.1 43.95 78.62 85.51 96.55-41.22 22.17-67.83 65.59-67.83 113.28a7.5 7.5 0 0 0 7.5 7.5h242.15c10.16 0 19.1-6.86 21.72-16.68l2.7-10.04a37.48 37.48 0 0 0 18.23-68.05l19.07-71.2a22.5 22.5 0 0 0-15.9-27.55m-43.92-5.57a16.2 16.2 0 0 1-5.9-17.56c7.85-27.25 8.35-53.25 7.38-66.29q5.4-1.76 10.77-3.68a138 138 0 0 1 2.46 25.81 137.4 137.4 0 0 1-14.71 61.72m50.73-61.78a28.6 28.6 0 0 1-23.65 28.16 152 152 0 0 0-.02-56.33 28.6 28.6 0 0 1 23.67 28.17m-173.93-82.34a323 323 0 0 0 136.97-30.55q-1.05 11.49-1.79 22.98c-42.54 18.3-87.92 27.57-135.18 27.57-47.08 0-92.3-9.2-134.72-27.38q-.74-11.47-1.79-22.95a323 323 0 0 0 136.51 30.33M82.28 251.13a28.6 28.6 0 0 1 23.68-28.17 151 151 0 0 0 .03 56.34 28.6 28.6 0 0 1-23.71-28.17m.65-58.02a14.92 14.92 0 1 1 13.1-26.78c49.72 24.86 103.47 37.46 159.74 37.46 56.39 0 110.23-12.65 160.03-37.6A14.95 14.95 0 1 1 429 193c-53.39 26.54-111.6 40.81-173.23 40.81-58.93 0-118.7-14.07-172.84-40.69m50.15 119.76a136.7 136.7 0 0 1-12.3-87.57 418 418 0 0 0 10.78 3.65c-.98 13-.5 39.07 7.37 66.4a16.3 16.3 0 0 1-5.85 17.52m164.72 92.5 1.31 1.94a12.5 12.5 0 0 1-10.31 19.55h-8.83a89 89 0 0 0 17.83-21.48m-41.8-1.61c8.94 0 17.83-.79 26.58-2.32-6.43 9.52-15.4 17.76-26.58 24.32-11.18-6.56-20.16-14.8-26.6-24.32a154 154 0 0 0 26.6 2.32m-43.12 3.54 1.31-1.92a89 89 0 0 0 17.83 21.48h-8.82a12.5 12.5 0 0 1-10.32-19.56M167.85 497h-25.17a113.8 113.8 0 0 1 31.44-71.1 478 478 0 0 0-6.27 71.1m15 0c.42-28.84 3.32-55.9 9.23-86.32q2.15-1.49 4.4-2.88c-4.22 17.12 8.69 34.06 26.72 34.06h65.6c18.02 0 30.92-16.94 26.72-34.04q2.22 1.38 4.37 2.86c6.07 32.18 8.84 57.95 9.25 86.32zm154.93-71.17q3.91 4.06 7.42 8.5a27 27 0 0 0-4.7 10.3 551 551 0 0 0-2.72-18.8M355.86 497h-11.72a464 464 0 0 0-1.74-34.75 27.5 27.5 0 0 0 14.93 13.96l-2 7.46a22.4 22.4 0 0 0 .53 13.33m-1.02-46.36a12.4 12.4 0 0 1 6.84-11.1 37.4 37.4 0 0 0 2.02 23.03 12.4 12.4 0 0 1-8.86-11.93m43.04-67.8 14.49 3.88-6.56 24.48a38 38 0 0 0-15.56.1zm-13.57 108.6a7.5 7.5 0 1 1-14.5-3.88l2.66-9.91q1.13-.21 2.24-.53a38 38 0 0 0 11.72 6.4zm36.41-43.5c0 12.4-10.1 22.5-22.5 22.5s-22.5-10.1-22.5-22.5 10.1-22.5 22.5-22.5 22.5 10.09 22.5 22.5m3.59-105.78-8.06 30.07-14.49-3.88 8.06-30.08a7.5 7.5 0 1 1 14.49 3.89"/>
  <path d="M223.73 331.02a37.1 37.1 0 0 0 32.27-6.98 37 37 0 0 0 32.26 6.99 37.1 37.1 0 0 0 27.77-28.99 12.4 12.4 0 0 0-12.16-14.85c-4.7 0-9.28-2-12.9-5.62a27.46 27.46 0 0 0-34.97-3.25 27.46 27.46 0 0 0-34.98 3.25c-3.61 3.63-8.2 5.62-12.89 5.62a12.4 12.4 0 0 0-12.16 14.85 37.1 37.1 0 0 0 27.76 28.98m7.92-38.86a12.45 12.45 0 0 1 18.52.97 7.5 7.5 0 0 0 11.66 0 12.45 12.45 0 0 1 18.52-.97 33.4 33.4 0 0 0 20.2 9.86c-2.43 7.25-8.2 12.55-15.88 14.45a22 22 0 0 1-22.84-7.67 7.5 7.5 0 0 0-11.66 0 22 22 0 0 1-22.85 7.66 21.9 21.9 0 0 1-15.87-14.44 33.4 33.4 0 0 0 20.2-9.86m-30.61-25.66a7.5 7.5 0 0 0-15 0v12a7.5 7.5 0 0 0 15 0zm124.9 12v-12a7.5 7.5 0 0 0-15 0v12a7.5 7.5 0 0 0 15 0m178.66 9.13a57 57 0 0 0-11.53-5.4 58 58 0 0 0-5.4-11.54c-2.84-4.63-7.77-7.4-13.17-7.4s-10.32 2.77-13.16 7.4a58 58 0 0 0-5.4 11.53 58 58 0 0 0-11.53 5.4 15.3 15.3 0 0 0-7.4 13.17c0 5.4 2.76 10.32 7.4 13.16a58 58 0 0 0 11.53 5.41 58 58 0 0 0 5.4 11.52 15.3 15.3 0 0 0 13.16 7.41c5.4 0 10.33-2.77 13.16-7.4a58 58 0 0 0 5.4-11.53 58 58 0 0 0 11.54-5.4 15.3 15.3 0 0 0 7.4-13.17c0-5.4-2.77-10.33-7.4-13.16m-7.83 13.53a43 43 0 0 1-11.6 4.92 7.5 7.5 0 0 0-5.4 5.39 43 43 0 0 1-4.9 11.58c-.1.15-.18.24-.37.24s-.28-.09-.37-.24c-2.2-3.6-3.86-7.5-4.9-11.58a7.5 7.5 0 0 0-5.4-5.4 43 43 0 0 1-11.6-4.91c-.14-.1-.23-.19-.23-.37s.09-.28.23-.37a43 43 0 0 1 11.6-4.91 7.5 7.5 0 0 0 5.4-5.4 43 43 0 0 1 4.9-11.59c.1-.15.18-.23.37-.23s.28.08.37.23c2.2 3.6 3.86 7.51 4.9 11.6a7.5 7.5 0 0 0 5.4 5.39 43 43 0 0 1 11.6 4.91c.14.1.23.18.23.37s-.09.27-.23.37M138.5 406c0-5.87-3-11.2-8.04-14.29a66 66 0 0 0-13.79-6.38 66 66 0 0 0-6.38-13.79 16.7 16.7 0 0 0-14.3-8.04c-5.86 0-11.2 3-14.28 8.04a66 66 0 0 0-6.39 13.79 66 66 0 0 0-13.78 6.38A16.7 16.7 0 0 0 53.5 406c0 5.87 3 11.2 8.04 14.29a66 66 0 0 0 13.79 6.4 66 66 0 0 0 6.38 13.77A16.7 16.7 0 0 0 96 448.5c5.87 0 11.2-3 14.29-8.04a66 66 0 0 0 6.38-13.78 66 66 0 0 0 13.79-6.4A16.7 16.7 0 0 0 138.5 406m-15.87 1.5c-4.33 2.65-9 4.63-13.87 5.88a7.5 7.5 0 0 0-5.4 5.4 51 51 0 0 1-5.87 13.85c-.44.72-1.05.87-1.5.87s-1.04-.15-1.49-.87a51 51 0 0 1-5.87-13.86 7.5 7.5 0 0 0-5.4-5.39 51 51 0 0 1-13.86-5.88c-.72-.44-.87-1.06-.87-1.5s.15-1.05.87-1.5a51 51 0 0 1 13.86-5.87 7.5 7.5 0 0 0 5.4-5.4 51 51 0 0 1 5.87-13.86c.44-.72 1.06-.87 1.5-.87s1.05.15 1.5.87a51 51 0 0 1 5.87 13.87 7.5 7.5 0 0 0 5.39 5.39 51 51 0 0 1 13.87 5.88c.72.44.87 1.05.87 1.49s-.15 1.06-.87 1.5"/>
  <path fill="#ffce71" d="M47.5 329h-6a7.5 7.5 0 0 0 0 15h6a7.5 7.5 0 0 0 0-15m-34 0h-6a7.5 7.5 0 0 0 0 15h6a7.5 7.5 0 0 0 0-15m14 14a7.5 7.5 0 0 0-7.5 7.5v6a7.5 7.5 0 0 0 15 0v-6a7.5 7.5 0 0 0-7.5-7.5m0-13a7.5 7.5 0 0 0 7.5-7.5v-6a7.5 7.5 0 0 0-15 0v6a7.5 7.5 0 0 0 7.5 7.5m477 63.92h-6a7.5 7.5 0 1 0 0 15h6a7.5 7.5 0 1 0 0-15m-34 0h-6a7.5 7.5 0 1 0 0 15h6a7.5 7.5 0 1 0 0-15m14 14a7.5 7.5 0 0 0-7.5 7.5v6a7.5 7.5 0 1 0 15 0v-6a7.5 7.5 0 0 0-7.5-7.5m0-13a7.5 7.5 0 0 0 7.5-7.5v-6a7.5 7.5 0 1 0-15 0v6a7.5 7.5 0 0 0 7.5 7.5"/>
</svg>
