<svg xmlns="http://www.w3.org/2000/svg" width="512" height="512" viewBox="0 0 512.02 512.02">
  <path fill="#565e75" d="M391.56 353.91v90.37h60.24V353.9z"/>
  <path fill="#4b5165" d="M391.56 353.91h24.94v90.37h-24.94z"/>
  <path fill="#616a82" d="M459.08 421.69h-74.8a15.3 15.3 0 0 0-15.32 15.3v52.22c0 8.45 6.86 15.31 15.32 15.31h74.8a15.3 15.3 0 0 0 15.3-15.31V437a15.3 15.3 0 0 0-15.3-15.31"/>
  <path fill="#565e75" d="M402.1 489.2V437a15.3 15.3 0 0 1 15.3-15.31h-33.12a15.3 15.3 0 0 0-15.32 15.3v52.22c0 8.45 6.86 15.3 15.32 15.3h33.13a15.3 15.3 0 0 1-15.31-15.3"/>
  <path fill="#616a82" d="M368.96 225.56V361.2c0 8.46 6.86 15.31 15.32 15.31h74.8a15.3 15.3 0 0 0 15.3-15.3V225.55z"/>
  <path fill="#565e75" d="M474.39 279.11v-53.55H368.96V361.2c0 8.46 6.86 15.31 15.32 15.31h33.13a15.3 15.3 0 0 1-15.31-15.3v-54.73a27.36 27.36 0 0 1 27.36-27.36zm-414.17 74.8v90.37h60.24V353.9z"/>
  <path fill="#4b5165" d="M60.22 353.91h24.95v90.37H60.22z"/>
  <path fill="#616a82" d="M127.74 421.69h-74.8a15.3 15.3 0 0 0-15.31 15.3v52.22c0 8.45 6.86 15.31 15.31 15.31h74.8c8.46 0 15.32-6.86 15.32-15.31V437c0-8.46-6.86-15.31-15.32-15.31"/>
  <path fill="#565e75" d="M70.76 489.2V437c0-8.46 6.86-15.31 15.32-15.31H52.94a15.3 15.3 0 0 0-15.3 15.3v52.22a15.3 15.3 0 0 0 15.3 15.3h33.14a15.3 15.3 0 0 1-15.32-15.3"/>
  <path fill="#616a82" d="M37.63 225.56V361.2c0 8.46 6.86 15.31 15.31 15.31h74.8c8.46 0 15.32-6.85 15.32-15.3V225.55z"/>
  <path fill="#565e75" d="M143.06 279.11v-53.55H37.63V361.2c0 8.46 6.86 15.31 15.31 15.31h33.14a15.3 15.3 0 0 1-15.32-15.3v-54.73a27.36 27.36 0 0 1 27.36-27.36z"/>
  <path fill="#f6e66a" d="M451.72 120.47h-25.69c-22.55 0-43.14-13.34-51.81-34.15-19.3-46.27-64.95-78.8-118.21-78.8-53.28 0-98.93 32.56-118.2 78.8-8.68 20.81-29.27 34.15-51.82 34.15H60.3a52.8 52.8 0 0 0-52.79 52.8v29.96a52.8 52.8 0 0 0 52.8 52.79h391.41a52.8 52.8 0 0 0 52.79-52.8v-29.95a52.8 52.8 0 0 0-52.8-52.8"/>
  <path fill="#f1cd62" d="M180.56 32.11a128.5 128.5 0 0 0-42.76 54.2c-8.67 20.82-29.26 34.16-51.81 34.16H60.3a52.8 52.8 0 0 0-52.79 52.8v29.96a52.8 52.8 0 0 0 52.8 52.79h131.17c-41.96-68.7-45.02-153.46-10.92-223.9"/>
  <path fill="#e1f1f9" d="M270.63 209.13a7.46 7.46 0 0 1 10.84-.1 20 20 0 0 0 15.43 6.4c10.89-.39 19.35-9.66 19.35-20.56v-10.8c0-6.58 1.85-13 5.12-18.7A75.33 75.33 0 0 0 277.2 55.72c-36.24 0-65.79 42.85-66.27 79-.21 16 4 30.98 11.46 43.85 3.67 6.32 15.63 28.49 15.63 28.49a7.6 7.6 0 0 1 3.38 2.07 20.1 20.1 0 0 0 29.24 0"/>
  <path fill="#cce6f4" d="M232.42 178.57a85 85 0 0 1-11.46-43.85c.48-36.15 23.86-67.15 56.23-79-48.32-14.13-95.83 22.36-96.47 71.27a75 75 0 0 0 10.1 38.7 36.6 36.6 0 0 1 4.95 18.37v10.81c0 10.9 8.46 20.18 19.34 20.56 6.1.21 11.62-2.29 15.44-6.4a7.3 7.3 0 0 1 7.46-1.97v-7.69a41.4 41.4 0 0 0-5.6-20.8"/>
  <path d="M451.72 112.97h-25.69c-19.79 0-37.41-11.6-44.9-29.54a136 136 0 0 0-16.33-28.7 7.5 7.5 0 0 0-12.03 8.95 121 121 0 0 1 14.52 25.52c9.82 23.55 32.88 38.77 58.74 38.77h25.69a45.2 45.2 0 0 1 34.82 16.33l-43.85 11.96a31.6 31.6 0 0 0-16.88 11.46l-5.69 7.58a16.4 16.4 0 0 1-20.48 4.84l-27.32-13.66a7.5 7.5 0 0 0-6.71 13.41l27.32 13.67a31.4 31.4 0 0 0 39.2-9.26l5.68-7.58a16.5 16.5 0 0 1 8.82-5.99l47.63-12.99a46 46 0 0 1 2.75 15.53v29.96c0 24.33-19.7 45.29-45.3 45.29H60.32a45 45 0 0 1-32.35-13.61l13.5-15.76c4.2-4.9 10.54-7.3 16.94-6.38l21.12 3.02a33.7 33.7 0 0 0 33.77-16.07l13.6-22.68a7.5 7.5 0 1 0-12.86-7.71L100.43 192a18.7 18.7 0 0 1-18.78 8.94l-21.13-3.02a33.7 33.7 0 0 0-30.45 11.47l-10.93 12.76A45 45 0 0 1 15 203.23v-29.96a45.34 45.34 0 0 1 45.3-45.3h25.68c25.86 0 48.92-15.22 58.74-38.77C175.42 15.58 267.4-8 329.63 40.13a7.5 7.5 0 0 0 9.18-11.87C268.75-25.93 165.37.7 130.88 83.43c-7.48 17.95-25.1 29.54-44.9 29.54H60.3a60.36 60.36 0 0 0-60.29 60.3v29.96a60.1 60.1 0 0 0 30.12 52.18v36.25a7.5 7.5 0 1 0 15 0v-30.08a60 60 0 0 0 15.17 1.94h75.26v26.3l-19.23 3.21a26.8 26.8 0 0 0-21.89 31.76 11.8 11.8 0 0 1-8.74 13.77 7.5 7.5 0 1 0 3.64 14.55 26.8 26.8 0 0 0 19.8-31.29 11.83 11.83 0 0 1 9.66-14l16.76-2.78v56.15c0 4.31-3.5 7.81-7.82 7.81h-74.8c-4.3 0-7.81-3.5-7.81-7.8v-34.4a7.5 7.5 0 1 0-15 0v34.4a22.84 22.84 0 0 0 22.6 22.8v30.2a22.84 22.84 0 0 0-22.6 22.8v52.2a22.84 22.84 0 0 0 22.81 22.82h74.8a22.84 22.84 0 0 0 22.82-22.81V437a22.84 22.84 0 0 0-22.6-22.8V384a22.84 22.84 0 0 0 22.6-22.8v-97.68h210.9v97.67a22.84 22.84 0 0 0 22.6 22.8v30.2a22.84 22.84 0 0 0-22.6 22.8v52.22a22.84 22.84 0 0 0 22.82 22.81h74.8a22.84 22.84 0 0 0 22.8-22.81V437a22.84 22.84 0 0 0-22.58-22.8V384a22.84 22.84 0 0 0 22.59-22.8V255.42a60.7 60.7 0 0 0 30.12-52.2v-29.96c0-33.06-26.7-60.3-60.3-60.3M112.96 414.2H67.72V384h45.24zm22.6 22.8v52.22c0 4.3-3.51 7.8-7.82 7.8h-74.8c-4.3 0-7.81-3.5-7.81-7.8V437c0-4.31 3.5-7.81 7.81-7.81h74.8c4.31 0 7.82 3.5 7.82 7.8m308.74-22.8h-45.24V384h45.24zm22.59 22.8v52.22c0 4.3-3.5 7.8-7.81 7.8h-74.8a7.8 7.8 0 0 1-7.82-7.8V437c0-4.31 3.5-7.81 7.82-7.81h74.8c4.3 0 7.8 3.5 7.8 7.8m-7.8-67.99h-74.8a7.8 7.8 0 0 1-7.82-7.8v-97.68h75.26q7.8-.02 15.17-1.94v69.83l-1.94-2.59a24.05 24.05 0 0 0-26.82-8.38 9 9 0 0 1-10.07-3.15 7.5 7.5 0 0 0-12 9 24 24 0 0 0 26.81 8.38 9.1 9.1 0 0 1 10.08 3.15l13.94 18.6v4.77c0 4.31-3.5 7.81-7.81 7.81"/>
  <path d="M214.85 222.92a27.4 27.4 0 0 0 21.09-8.67 27.54 27.54 0 0 0 40.14 0 27.4 27.4 0 0 0 20.08 8.69c15.29 0 27.6-12.9 27.6-28.07v-10.8a30 30 0 0 1 4.12-14.96c18.1-31.57 13.94-73.03-14-100.33a82.6 82.6 0 0 0-116.63 1.04 82.54 82.54 0 0 0-12.9 99.64 29 29 0 0 1 3.92 14.6v10.81c0 14.96 11.92 27.54 26.58 28.05m-26.63-95.83c.47-36.05 30.17-66.05 66.2-66.87a67.75 67.75 0 0 1 60.45 101.42 45 45 0 0 0-6.12 22.43v10.8c0 6.97-5.43 12.83-12.1 13.06a12.6 12.6 0 0 1-13.06-12.57 7.5 7.5 0 1 0-15 0c0 6.93-5.64 12.58-12.58 12.58s-12.58-5.65-12.58-12.58a7.5 7.5 0 1 0-15 0c0 7.05-5.8 12.8-13.05 12.57-6.68-.23-12.11-6.1-12.11-13.06v-10.81a44 44 0 0 0-5.95-22.13 67.6 67.6 0 0 1-9.1-34.84"/>
  <path d="M225.89 124.96a7.5 7.5 0 0 0 7.5-7.5v-12.05a7.5 7.5 0 1 0-15 0v12.05a7.5 7.5 0 0 0 7.5 7.5m60.24 0a7.5 7.5 0 0 0 7.5-7.5v-12.05a7.5 7.5 0 1 0-15 0v12.05a7.5 7.5 0 0 0 7.5 7.5"/>
</svg>
