<svg xmlns="http://www.w3.org/2000/svg" width="512" height="512" viewBox="0 0 512 512">
  <path fill="#80c5b0" d="M126.8 308.37c-8.8-3.75-43.6-25.28-63.78-56.37-24.49-37.75-21.97-74.62-20.86-111 1.03-31.18-.63-52.18-25.44-70.8l-.37-.28A16.94 16.94 0 0 1 34.64 41.5C74.5 63.24 85 95.04 89.94 138.98c3.21 28.89 4.51 56.05 23.07 76.67 12.3 13.56 27.73 21.12 41.75 27.1h.02z"/>
  <path fill="#ebeaf5" d="m498.75 76.65-6.24-33.26-33-3.4-8.02 34.82 35.29 12.17a9.14 9.14 0 0 0 11.97-10.33"/>
  <path fill="#6fbfa6" d="M103.32 237.7a120 120 0 0 0-13.2 45.14c15.77 14.04 31.23 23.2 36.68 25.53l27.98-65.63h-.02c-12.95-5.53-27.1-12.4-38.88-24.11a115 115 0 0 0-12.56 19.08"/>
  <path fill="#6fbfa6" d="M265.9 214.63q-7.38-.4-15.55-1.57a228 228 0 0 1-22.25-4.42 91 91 0 0 0-7.4-1.52l-20.13 30.02-20.12-27.22c-21.23 6.53-39.7 21.03-50.56 41.71a90 90 0 0 0-10.23 42.54c.44 49.56 42.46 89.55 92 89.2 179.95-1.3 212.76-177.48 198.94-223.49l-48.01-6.69s-8.13 43.77-56.55 57.58l-17.28 28.56z"/>
  <path fill="#50b692" d="m410.6 159.88-48.01-6.69s-4.14 22.24-24.04 40.01a89.6 89.6 0 0 0 40.28 9.5q17.79 0 33.56-1.1c1.9-17.58 1.02-32.35-1.8-41.72"/>
  <path fill="#80c5b0" d="m487.46 115.66-55.42-9.04a7.97 7.97 0 0 1-3.56-14.19L492.5 43.4c11.15-8.54 8.43-25.94-4.74-30.81-30.28-11.2-85.23-8.6-151.41 57.57a60.07 60.07 0 0 0 42.47 102.54c67.7 0 100.84-12.74 117.03-25.75 11.92-9.59 6.7-28.82-8.4-31.28"/>
  <ellipse cx="385.14" cy="117" fill="#ebeaf5" rx="29.4" ry="23.42" transform="rotate(-22.15 385.34 117.02)"/>
  <path fill="#50b692" d="M314.87 296.61a112.7 112.7 0 0 1-65.55 20.91c-51.56 0-95.06-34.47-108.71-81.62-4.09 4.75-7.7 10-10.72 15.74a90 90 0 0 0-10.23 42.53c.44 49.56 42.46 89.55 92 89.2 61.72-.45 106.13-21.47 137.29-50.75z"/>
  <path fill="#80c5b0" d="M231.24 440.18a115 115 0 0 0-10.33 18.8h13.8c6.27 0 11.96 2.55 16.08 6.67a22.76 22.76 0 0 1-16.09 38.85h-44.1a32.04 32.04 0 0 1-28.2-47.26l2.5-4.63A138 138 0 0 0 179 412.5l-17.6-17.59a45.6 45.6 0 0 1-13.4-32.34 45.6 45.6 0 0 1 17.67-36.1 45.73 45.73 0 0 1 60.39 3.76l18.92 18.92a52.5 52.5 0 0 1 12.43 19.7 53 53 0 0 1 1.56 29.74 52.4 52.4 0 0 1-14 25l-.05.06a115 115 0 0 0-13.68 16.53m156.63-114.56c-17.15-5.02-32.22-17.13-42.65-27.48a27.6 27.6 0 1 0-38.77 39.24c15.28 15.11 37.98 32.93 65.94 41.11a27.55 27.55 0 0 0 15.48-52.87"/>
  <path fill="#f9ba6d" d="M220.7 207.12v41.04c0 5.55-2.26 10.59-5.9 14.22a20.13 20.13 0 0 1-34.36-14.22v-38.24a89 89 0 0 1 40.25-2.8m90.91 40.67a20.13 20.13 0 0 1-40 3.1l-5.7-36.26c15.77.9 29-.7 40.14-3.86l5.31 33.87q.25 1.58.25 3.15"/>
  <path d="M385.47 92.5a7.5 7.5 0 1 0 13.9-5.66l-4.54-11.13a7.5 7.5 0 1 0-13.9 5.65z"/>
  <path d="M303.9 203.56c-50.49 14.35-78.93-15.27-125.76-.8a93 93 0 0 0-39.35 23.89c-8.26-4.8-14.8-9.96-20.29-16.03-15.3-17-17.65-39.19-20.36-64.88-5.32-50.31-14.77-86.16-59.99-110.81a24.6 24.6 0 0 0-31.26 6.78c-8.1 10.8-5.43 26.49 5.24 34.5 22.37 16.8 23.4 35.6 22.45 64.58-1.2 36.5-2.47 68.23 14.44 101.99a7.5 7.5 0 0 0 13.41-6.72c-14.96-29.87-14.02-58.86-13.02-89.56 1.13-35.03 1.3-60.08-28.27-82.28-4.2-3.15-5.57-9.08-2.25-13.5a9.5 9.5 0 0 1 12.07-2.62c40.2 21.9 47.48 54.06 52.26 99.2 2.86 27.12 5.57 52.73 24.15 73.37a97 97 0 0 0 21.76 17.67c-10.09 14.45-16.5 32.89-17.03 52.47-11.17-7.9-23.95-18.8-34.33-31.33a7.5 7.5 0 0 0-11.56 9.56c14.54 17.56 33.36 32.11 47.25 40.62 3.34 19.4 12.63 37.3 26.99 51.72a53.3 53.3 0 0 0 15.56 38.81l14.74 14.75a131 131 0 0 1-13.81 36.45c-16.84 30.54 5.26 60.6 33.58 60.6h44.1a29.7 29.7 0 0 0 27.9-18.66 29.8 29.8 0 0 0-6.51-33c-7.6-7.6-16-8.84-23.05-8.9 14-24.51 27.21-25.8 33.22-51.11a63 63 0 0 0 1.77-16.2 196 196 0 0 0 55.09-22.57c13.07 9.66 29.02 18.82 47.16 24.13a35 35 0 0 0 43.48-23.79 35.03 35.03 0 0 0-23.8-43.48 69 69 0 0 1-13.35-5.62c13.5-17.98 24.25-38.47 32.03-61.04a7.5 7.5 0 0 0-14.19-4.88c-7.38 21.42-17.6 40.8-30.44 57.73a136 136 0 0 1-13.51-11.79 35.06 35.06 0 0 0-44.83-3.8 35.1 35.1 0 0 0-4.5 53.7l.02.02c3.06 3.02 6.16 5.9 9.42 8.76a182 182 0 0 1-45.04 17.8 62 62 0 0 0-15.3-25.45l-18.91-18.91a53.3 53.3 0 0 0-70.32-4.38l-.03.03a53 53 0 0 0-16.77 22.38c-32.73-42.08-15.84-101.93 28.7-122.2v27.4a27.62 27.62 0 1 0 55.25 0v-31.78a219 219 0 0 0 31.23 5.3l3.55 22.67c1.4 8.84 1.78 18.11 12.23 25.73a27.5 27.5 0 0 0 20.55 4.97 27.5 27.5 0 0 0 23-31.57l-4.32-27.54c24.23-8.67 38.26-24.44 46.26-38.22 11.99 3.32 27.83 2.72 45.14 1.73.4 11.62-.88 25.34-3.75 39.47a7.5 7.5 0 1 0 14.7 2.97c3.14-15.47 4.51-30.63 4-43.58 36.3-3.55 63.04-12.09 79.76-25.53 16.97-13.63 9.66-41.02-11.88-44.53l-55.42-9.04a.46.46 0 0 1-.2-.83l19.8-15.17 31.48 10.85a16.64 16.64 0 0 0 21.79-18.8l-5.48-29.23c11.41-12.74 7.04-34.09-10.26-40.49-21.95-8.12-81.41-18.6-159.32 59.3a67.65 67.65 0 0 0 15.55 107.2c-7.4 11.92-20.34 25.15-42.63 31.5m81.78 129.26a20.03 20.03 0 1 1-11.27 38.47c-23.53-6.88-45.16-21.83-62.75-39.21l-.02-.03a20.1 20.1 0 0 1 2.56-30.75l.04-.03a20.1 20.1 0 0 1 25.61 2.2c12.72 12.62 28.76 24.35 45.82 29.35m-134.1 64.04c-5.32 22.43-22.62 24.43-37.64 59.15a7.5 7.5 0 0 0 6.14 10.44c2.9.28 5.74.18 8.49.09 7.43-.27 12.22-.2 16.83 4.41 5.3 5.3 5.15 12.07 3.26 16.65a14.8 14.8 0 0 1-14.04 9.4h-44.1c-17.13 0-31.65-18.03-20.45-38.35a146 146 0 0 0 16.2-44.77 7.5 7.5 0 0 0-2.06-6.69l-17.6-17.6c-16.33-16.32-14.49-43.1 3.58-57.2a38.26 38.26 0 0 1 50.42 3.09c.11.12.15.39 16.9 16.9 12.37 13.3 18.27 26.8 14.07 44.48m-51.1-136.07a12.64 12.64 0 0 1-12.62-12.63v-32.51a82 82 0 0 1 25.25-1.88v34.4c0 6.82-5.52 12.62-12.62 12.62m99.32-40.82 4.06 25.87a12.67 12.67 0 0 1-10.51 14.4h-.06a12.63 12.63 0 0 1-14.37-10.52l-4.3-27.34c8.87-.02 17.29-.83 25.18-2.41M489.14 79.89l-22.09-7.61 20.25-15.51 3.98 21.27a1.64 1.64 0 0 1-2.14 1.85m-147.57-4.43c28.9-28.89 57.82-47.7 85.97-55.9 18.85-5.5 39.27-6.7 57.54.06 7.65 2.83 9.24 12.88 2.79 17.82l-64.04 49.04c-10.77 8.26-6.45 25.37 6.92 27.55l55.41 9.03c8.78 1.44 11.75 12.54 4.9 18.04-11.52 9.26-35.06 20.03-82.89 23.18-26.41 1.74-48.31 3.8-66.6-14.48a52.63 52.63 0 0 1 0-74.34"/>
</svg>
